<svg id="Layer_1" data-name="Layer 1" xmlns="http://www.w3.org/2000/svg" width="64" height="64" viewBox="0 0 64 64"><defs><style>.cls-1{fill:#1d1d1b;}.cls-2{fill:#e6e4da;}.cls-3{fill:#fff;}</style></defs><title>asteroid</title><g id="asteroid"><path class="cls-1" d="M51.41,37.46c-.87,0-1.53,1-1.75,1-.42.08-1,0-1.58,0a3.27,3.27,0,0,0-2.62.92c-.92,1-1.37,5.38-.12,6.42s3.25.58,4,.46,1,.21,1.88.25a4.26,4.26,0,0,0,3.63-2c.92-1.58.13-4.33-.33-5.37A3.85,3.85,0,0,0,51.41,37.46ZM18.54,19.21c2,.63,5.08-.21,6.88-.33s4.75.54,6.13.46,3.21-1.92,3.79-5-.5-7-3.37-8S25.62,6.88,24,7.46,20.68,8,18.21,9.21s-2.42,2.54-2.46,4S16.58,18.59,18.54,19.21Zm18.25,1.54c.42.13,9.5-10.17,9.63-10.5s-.71-1.08-1.12-1.08-9.85,9.77-9.75,10.25A3.41,3.41,0,0,0,36.79,20.76Zm15.75-7c.33.08,2.58-2.83,2.71-3.21s-.62-.46-1-.5-3,2.51-2.79,2.75A3.51,3.51,0,0,0,52.54,13.76ZM13.12,23.3c.33-.58-1.83,0-2.42.25a6.92,6.92,0,0,0-2.92,3.33A8.63,8.63,0,0,0,6.62,31a1.93,1.93,0,0,0,1.79.29c.42-.21.29-1.67.92-3.71S12.79,23.88,13.12,23.3ZM36.5,8a10,10,0,0,0,2.38-2.21c.08-.25-.12-.67-.62-.83s-2.79,1.25-2.71,2C35.58,7.38,36.12,8.09,36.5,8Zm19.79,8.63c-1.79-2.37-5.62-1.08-6.37-.87s-2.8-.19-3.75.54c-3,2.33-2.25,6.46-2.12,7.5a2.52,2.52,0,0,0,2.17,2c.92.08,3.63,1.29,5.08,1.63s4,.21,5-1.37S58.08,19,56.29,16.67ZM49.58,31.21c.13-.42-.08-.33-.46-.42s-3,2.18-3.33,2.58c-.12.17.75,1.17,1.08,1.17S49.46,31.63,49.58,31.21ZM31,57.46c-.25-.08-1,.21-3.92.17a4.9,4.9,0,0,1-3.54-1.17c-.33,0-1,.63-1.25,1s.63.54,1.13.83a9.22,9.22,0,0,0,4,.71,8.45,8.45,0,0,0,3.83-.54C31.25,58.3,31.25,57.55,31,57.46Zm7.67-30.62c-2.37-1.42-3.92-4-7.08-4.25s-5.29,1.56-8,1.92c-3.83.5-7.17,1-9.83,3.13a11.39,11.39,0,0,0-4,8.13,5.1,5.1,0,0,0,1.67,4.46c.79.75-.12,2.25-.25,3.5a11.39,11.39,0,0,0,3.92,7.88c2.88,2.17,4.46,2,7,2s3.58.54,7.5,1.25,5,.17,7.88-2.46S39,46.84,39.25,46.3s1.54-1.21,2.71-2.54,2-5.67,1.67-8.67S41,28.26,38.66,26.84Z"/><path class="cls-2" d="M21.16,9.55a3.59,3.59,0,0,0,3.21,1.75,3.54,3.54,0,0,0,3.08-2.37c.29-.71.17-1.25.29-1.25s2.88-.92,4.29.92a7.19,7.19,0,0,1,1.21,6.25c-.62,1.67-2.12,2.92-3,2.92a37.4,37.4,0,0,0-6.58-.42c-2.79.25-3.25.46-3.79.21a6.45,6.45,0,0,1-2-3.46,4.48,4.48,0,0,1,.92-3.58A13.21,13.21,0,0,1,21.16,9.55Z"/><path class="cls-2" d="M22.46,9.17c0-.2,3.67-1.25,3.79-1a2.33,2.33,0,0,1-1.58,2.08A1.93,1.93,0,0,1,22.46,9.17Z"/><path class="cls-1" d="M28.75,8.76c-.07-.21.63-.33.83-.17s1.25,2.63,1,2.83-.75.42-.92.13S28.79,8.88,28.75,8.76Z"/><path class="cls-1" d="M30.71,8.88c-.05-.16.46-.17.75.13s.88,1.67.63,1.83-.42.29-.62.13A11.47,11.47,0,0,1,30.71,8.88Z"/><path class="cls-1" d="M20.87,13.55C22,12.9,24,13.13,24,15s-2.79,2.17-3.5,1.42A1.76,1.76,0,0,1,20.87,13.55Z"/><path class="cls-3" d="M21.58,14.26C22.06,14,23,14.34,23,15s-1,.83-1.42.67A.78.78,0,0,1,21.58,14.26Z"/><path class="cls-1" d="M28,13c1.25-.78,3.92,0,3.63,1.79s-2.25,2.13-3.33,2S24.66,15.13,28,13Z"/><path class="cls-3" d="M28.5,13.76c.44-.21,2-.21,2,.88s-1.42,1.5-2.33,1.25S27.29,14.34,28.5,13.76Z"/><path class="cls-2" d="M47.25,17.8c.35-.34,1.54-.42,1.63-.17s.29,2,1.46,2.67a2.67,2.67,0,0,0,2.58.38c.71-.25,1.21-.62,1.13-.79s-.33-.67-.5-.67-1.67,1.08-2.67.25-.62-2-.17-2.17,3.29-.58,4,.38.63,7,.21,6.71-.87-1.67-1.12-1.67-.79.21-.67.5,1.38,1.71,1.13,2-.71.63-.92.46-.67-2.21-1.08-2.17-1,.25-.83.5.67,1.46.42,1.5-2.12-.58-3-.67-2.17.13-2.62-1.08S45.75,19.26,47.25,17.8Z"/><path class="cls-1" d="M48.41,21.26a1.82,1.82,0,0,1,2.33,1.42c0,1-1.79,1.79-2.75,1.08S46.87,21.88,48.41,21.26Z"/><path class="cls-3" d="M48.81,22.16a.6.6,0,0,1,.77.47c0,.34-.59.59-.91.36S48.3,22.36,48.81,22.16Z"/><path class="cls-2" d="M46.58,40.13c.14-.17.92-.37.88-.17s-.58,1.13.5,1.58a3.49,3.49,0,0,1,1.42.92s.21,2.13-.12,2.13-.58.08-.62-.12,0-1.5-.21-1.54-.71-.25-.75,0,.13,1.88-.08,1.75-.5.13-.87-.46S46.21,40.59,46.58,40.13Z"/><path class="cls-2" d="M52,39.59c.13-.08.54-.25.75-.08a4,4,0,0,1,.67,2.83c-.17,1.5-.37,1.83-.67,1.92s-.25.25-.29.08,0-1.46-.25-1.5-.79,0-.83.13.21,1.79-.12,1.75-.87,0-.92-.25a8,8,0,0,1-.08-2c.13,0,1.54-.08,1.83-1A3.1,3.1,0,0,0,52,39.59Z"/><path class="cls-3" d="M49.25,39.59c1.38-.17,2,.75,1.88,1.33s-.87,1-1.87.42S48.21,39.71,49.25,39.59Z"/><path class="cls-2" d="M23.25,26c1.45-.17,3.13-1,5.5-1.25a8.3,8.3,0,0,1,6.5,1.67,25,25,0,0,1,5,4.83,9.41,9.41,0,0,1,1.42,7.92c-.79,3.08-1.12,3.71-2.12,4.46s-2.21,1.88-2.25,2.29,1,3.63-1,5.42-3.5,2.38-4.54,2.29-4.5-1.37-8-1.42S18.12,52,16.54,50.8a11.59,11.59,0,0,1-3.29-5.33c0-.75-.21-1.46.08-1.58s3.21-.62,4.08-1.33.71-2.29,0-3.37S16.16,37.21,15,37s-2.75,1.17-2.75,1.17a3.73,3.73,0,0,1-.54-2.75C12,34,12.75,30.71,15,28.67S20.79,26.26,23.25,26Z"/><path class="cls-1" d="M17.16,28.76c.28-.19,1.08.29.92.58a15.78,15.78,0,0,0-2,2.67c-.37,1-.17,1.58-.54,1.75s-.92.63-1,0a5.41,5.41,0,0,1,.71-2.62A9.55,9.55,0,0,1,17.16,28.76Z"/><path class="cls-1" d="M28.62,26.88c1.92-.5,3.58.58,4.67,1.25a5.87,5.87,0,0,0,2.42,1.13c.88.13,1.5.33,1.67,1s0,2.33-.5,2.54-2.58.25-3.58,1.08-1.33,1.71-2.71,2-2.83.54-4.37-.71S23.21,28.3,28.62,26.88Z"/><path class="cls-3" d="M29,27.88a5.49,5.49,0,0,1,3.29.83c1.13.67.88.79,2,1.08s1.88.42,2,.88.38,1.29-.17,1.46-2.5.13-3.46.79S31,35.21,28.91,35a3.39,3.39,0,0,1-3-3.21A3.71,3.71,0,0,1,29,27.88Z"/><path class="cls-1" d="M35.58,37a2.6,2.6,0,0,1,3.63,3.25c-.92,2.54-3.62,2.83-4.83,1.42A3.13,3.13,0,0,1,35.58,37Z"/><path class="cls-3" d="M35.94,37.91A1.66,1.66,0,0,1,38.25,40a1.85,1.85,0,0,1-3.09.9A2,2,0,0,1,35.94,37.91Z"/><path class="cls-3" d="M13.12,39.13c.17-.12,1-1.12,2.08-.71s2,2.83,1.63,3.13a12.94,12.94,0,0,1-3.21,1.13c-.08-.12.38-1.71.21-2.25A5.85,5.85,0,0,0,13.12,39.13Z"/><path class="cls-1" d="M24.75,42.92c.45-.19,3.63-.33,4.21.21s.88,2.21,2.21,2.88,2,1.13,2,2.29a2.27,2.27,0,0,1-2,2.08c-.79,0-2.92-.92-4.58-.92a8.46,8.46,0,0,1-3.87-.58,2.86,2.86,0,0,1-.87-2.71C22.16,45.67,23.12,43.63,24.75,42.92Z"/><path class="cls-3" d="M25.46,43.92c.68-.29,2.63-.29,2.92.21s.67,1.67,1.29,2S32.25,47.3,32.21,48s-.92,1.58-1,1.5a8.22,8.22,0,0,0-4.12-1c-2.21.08-2.58.38-3.21,0s-1.12-1.25-.92-1.75A8.82,8.82,0,0,1,25.46,43.92Z"/><path class="cls-1" d="M20.54,37.26a.56.56,0,0,1,1,0c.21.46,1.17,5,.88,5.17s-.58.54-.79.21A32.1,32.1,0,0,1,20.54,37.26Z"/><path class="cls-1" d="M22.91,37.17a.55.55,0,0,1,.83,0c.13.25.92,3.79.54,3.92s-.71.38-.87-.08S22.66,37.55,22.91,37.17Z"/><path class="cls-1" d="M25.41,37.63c.09-.28.71-.12.83.08a19,19,0,0,1,.38,3.38c-.08.17-.71.21-.83-.08A26.09,26.09,0,0,1,25.41,37.63Z"/><path class="cls-1" d="M27.79,38.13a.46.46,0,0,1,.71,0c.25.25,1.08,3.42.58,3.46s-.75.21-1-.37A9.37,9.37,0,0,1,27.79,38.13Z"/><path class="cls-1" d="M30.16,37.71c.18-.18.75-.42.83.08s.13,1.33-.17,1.46-.62.46-.75,0A3.16,3.16,0,0,1,30.16,37.71Z"/><path class="cls-1" d="M16,45.21c0-.32.67-.37.79,0s.5,1.42.29,1.5-.37.21-.67.08S16,45.59,16,45.21Z"/></g></svg>