<svg id="Layer_1" data-name="Layer 1" xmlns="http://www.w3.org/2000/svg" width="64" height="64" viewBox="0 0 64 64"><defs><style>.cls-1{fill:#1d1d1b;}.cls-2{fill:#e6e4da;}.cls-3{fill:#fff;}.cls-4{fill:#ffe19b;}.cls-5{fill:#fab900;}</style></defs><title>bb-8</title><g id="bb-8"><path class="cls-1" d="M18.79,26.51a9.92,9.92,0,0,1-.58-9.75c2.63-5.25,9.33-7.54,9.33-7.54a10.41,10.41,0,0,1-.42-2.5c.17-.25,2.88-1,3.13-.67a13.41,13.41,0,0,1,.46,2.75L32,8.92a9.35,9.35,0,0,1,1.12.21s-.62-5.87-.5-6,4.08-.58,4.21-.33S37,10.3,37,10.3s3.67,1.38,5.5,6.33.5,6.79.5,6.79L41.62,25s7.38,4.17,9,8.58S53,45.09,50,50.38,41.5,62,30,61.26,13.83,51.71,12.46,47,12.16,31.13,18.79,26.51Z"/><path class="cls-2" d="M19.87,24.46a9.52,9.52,0,0,1,.92-8.29c2.67-3.92,6-5.5,10.88-5.42s7.63,2.71,8.63,5.54,1.5,6,1.25,6.21-.87-.17-2.12-.71a25.7,25.7,0,0,0-2.71-1s2-1.71.29-3.5-4.62-.37-5,.88.83,2.58.83,2.58a15,15,0,0,0-7.54,1A32.75,32.75,0,0,0,19.87,24.46Z"/><path class="cls-3" d="M34.29,17.63a1.63,1.63,0,0,1,2.17,1.79c-.33,1.08-2.33.88-2.67.29A1.35,1.35,0,0,1,34.29,17.63Z"/><path class="cls-1" d="M28.12,12c2-.47,4,.79,4.21,2.54a3.38,3.38,0,0,1-5,3C24.29,16,26.16,12.51,28.12,12Z"/><path class="cls-1" d="M34.9,18.27a.71.71,0,0,1,.9.54.72.72,0,0,1-1.08.64C34.08,19.12,34.48,18.37,34.9,18.27Z"/><path class="cls-4" d="M28.55,8.84s-.41-1.22-.25-1.31,1.09-.5,1.16-.28.34,1.59.19,1.59Z"/><path class="cls-4" d="M34,3.84c.12-.12,1.75-.37,1.75-.09s.19,6.09,0,6-1.41-.28-1.44-.41S33.89,3.9,34,3.84Z"/><path class="cls-1" d="M23.21,18A12.62,12.62,0,0,1,23,15.25c.19-.12.5-.34.53-.09s.56,2.56.5,2.78S23.21,18,23.21,18Z"/><path class="cls-1" d="M20,20.87a8.82,8.82,0,0,1,2-1.5,4.37,4.37,0,0,1,1.94-.53,8.32,8.32,0,0,1,.75,2.63,5.22,5.22,0,0,1-.91.31s-.53-1.94-.75-1.84a25,25,0,0,0-2.31,1.34,3,3,0,0,1-.56.38S20,20.9,20,20.87Z"/><path class="cls-1" d="M34,13.06a13.19,13.19,0,0,1,2.38.31c1.19.25,1.59.53,1.66.69s.19.47.06.56-1.37-.37-2.28-.53-1.44-.06-1.53-.16S33.92,13.09,34,13.06Z"/><path class="cls-1" d="M38.64,17.9a5.35,5.35,0,0,1,1.84.47c.09.19.28.81.16.81a8.29,8.29,0,0,1-1.84-.44C38.64,18.59,38.64,17.9,38.64,17.9Z"/><path class="cls-1" d="M38.92,19.53a5.35,5.35,0,0,1,1.84.47c.09.19.28.81.16.81a8.29,8.29,0,0,1-1.84-.44C38.92,20.21,38.92,19.53,38.92,19.53Z"/><path class="cls-3" d="M37.77,25.62A11.73,11.73,0,0,1,41.71,27c2.16,1.16,2.59,2.19,2.59,2.19a6,6,0,0,1-4.19-.91A5.37,5.37,0,0,1,37.77,25.62Z"/><path class="cls-5" d="M34.8,25.21a7.28,7.28,0,0,1,1.41.25,7.2,7.2,0,0,0,4,4.13,11.65,11.65,0,0,0,5.47.78c.25.09,1.84,1.66,1.66,1.72s-4.87,1.19-8.28-1S34.64,26.31,34.8,25.21Z"/><path class="cls-2" d="M32.52,24.9c.18,0,.25,5.53,5.69,7.59a22.11,22.11,0,0,0,10.16,1.19,9,9,0,0,1,.88,2.78c-.09.16-1.5.16-1.56.94s.47,1.53.84,1.5a6,6,0,0,0,1.16-.34l.16,1.22a8.37,8.37,0,0,0-7.62,3.28,31.61,31.61,0,0,0-4.62,9,14.32,14.32,0,0,0-.28,1.47S36.27,51.87,36,52s-.75.19-.59.41l2,2.88a11,11,0,0,0,.22,1.47c.13.41.5,1.31.5,1.31s-3.09-4.66-3.31-4.56-.59.44-.56.59,3.22,4.28,3.06,4.41a4.52,4.52,0,0,1-.72.34S34,55.46,33.83,55.46s-.53.38-.5.47A35.62,35.62,0,0,1,35.86,59c-.19.06-1.59.13-1.59.13a19.65,19.65,0,0,0-2-2c-.19,0-.66.53-.56.69s1.41,1.31,1.22,1.41a12.93,12.93,0,0,1-1.84.06s-.19-.78-.47-.81a3.21,3.21,0,0,0-.75.06s0,.72-.09.72a11.41,11.41,0,0,1-5.09-1.06,9.44,9.44,0,0,1-3.06-2.12s1.56-.75,1.19-1.59-1-1.19-1.56-1.06-1,1.72-1,1.72a12.17,12.17,0,0,1-3-2.94,10.68,10.68,0,0,1-1.69-2.81,1.33,1.33,0,0,0,.75-.41,2.21,2.21,0,0,0,.5-.72A9.48,9.48,0,0,0,22.36,52c4,1.19,7.31.88,10.19-1.16s5.66-7.06,4.63-11.5a10.43,10.43,0,0,0-7.37-7.5,15.16,15.16,0,0,0-9.5,1.84,18.58,18.58,0,0,0-3.84,4.13,9.06,9.06,0,0,1-1.47-.5c-.09-.09.78-5.28,2.91-7.38S25,23.43,32.52,24.9Z"/><path class="cls-2" d="M14.21,39.43a.53.53,0,0,0,.47.47,1.82,1.82,0,0,0,1-.25,10.34,10.34,0,0,0-.44,4A19.5,19.5,0,0,0,16.14,47,1.07,1.07,0,0,0,15.3,47a2.46,2.46,0,0,0-.66.63,16.38,16.38,0,0,1-.78-4.09A12.94,12.94,0,0,1,14.21,39.43Z"/><path class="cls-5" d="M25.86,33.31c4-.55,8.69.84,9.44,7a9.27,9.27,0,0,1-6.59,10.28c-3,.88-8.59.06-10.53-4.31A9.46,9.46,0,0,1,25.86,33.31Z"/><path class="cls-1" d="M24.67,37.06c0-.09-.56-.94-.22-1.25a5.11,5.11,0,0,1,4.91-.34c2.66,1,2.84,2.69,2.75,2.78S31,39.5,31,39.5l.72,1.22s2-.25,2.09,0a6.7,6.7,0,0,1-1.09,5.31c-1.72,2.22-3.31,2.56-3.44,2.44s-.91-1.78-.91-1.78l-1.12.47A16.7,16.7,0,0,1,27.71,49a3.81,3.81,0,0,1-3.91.66,7.85,7.85,0,0,1-4-3.81c-.12-.44,1.19-1,1.19-1.16a9.19,9.19,0,0,0-.31-1.06s-1.5.25-1.53.09a4.52,4.52,0,0,1,.66-4.5c1.69-2.47,3.25-2.87,3.34-2.72a7.19,7.19,0,0,0,.47,1.09C23.71,37.68,24.67,37.06,24.67,37.06Z"/><path class="cls-3" d="M22.36,37.81s.66,1.06.84,1.09a10.33,10.33,0,0,0,2.63-1,6.2,6.2,0,0,0-.19-1.66,3.54,3.54,0,0,1,3.06,0c1.75.78,1.88,1.56,1.88,1.56s-1,1.38-.91,1.5,1.5,2.41,1.5,2.41a11.78,11.78,0,0,1,1.81.13,5.34,5.34,0,0,1-1,3.22,5.87,5.87,0,0,1-2.12,2.09s-.78-1.5-1-1.5-2.59.75-2.59,1.09.28,2.06.28,2.06A3.32,3.32,0,0,1,23,47.93c-1.84-1.69-2.09-1.91-1.84-2s1.19-.75,1.19-1a15.71,15.71,0,0,0-.62-2.12c-.06-.09-1.84,0-1.87-.09A8.62,8.62,0,0,1,20.64,40C21.17,39.06,21.89,38,22.36,37.81Z"/><path class="cls-1" d="M25.36,39.71a2.65,2.65,0,0,1,4,2.66c-.09,2.63-4.66,3.5-5.25,1S24.49,40.18,25.36,39.71Z"/><path class="cls-5" d="M25.88,40.71a1.55,1.55,0,0,1,2.32,1.55c-.05,1.54-2.72,2-3.07.57S25.37,41,25.88,40.71Z"/><path class="cls-5" d="M21.58,54.4c.2-.1.44.28.25.47s-.25.22-.41.13S21.39,54.5,21.58,54.4Z"/><path class="cls-1" d="M29.24,54.71a1.38,1.38,0,0,1,2.25.47,1.34,1.34,0,0,1-1.78,1.75C28.3,56.43,28.8,55.31,29.24,54.71Z"/><path class="cls-5" d="M29.81,55.29a.55.55,0,0,1,.89.19.53.53,0,0,1-.71.69C29.44,56,29.63,55.53,29.81,55.29Z"/><path class="cls-1" d="M38.74,37.53A1.38,1.38,0,0,1,41,38a1.34,1.34,0,0,1-1.78,1.75C37.8,39.25,38.3,38.12,38.74,37.53Z"/><path class="cls-1" d="M21,29.34a1.38,1.38,0,0,1,2.25.47,1.34,1.34,0,0,1-1.78,1.75C20.08,31.06,20.58,29.93,21,29.34Z"/><path class="cls-1" d="M30.42,28.74a1.07,1.07,0,0,1,1.74.36,1,1,0,0,1-1.38,1.36C29.69,30.07,30.08,29.2,30.42,28.74Z"/><path class="cls-1" d="M38.26,33.9a1.07,1.07,0,0,1,1.74.36,1,1,0,0,1-1.38,1.36C37.54,35.23,37.92,34.36,38.26,33.9Z"/><path class="cls-1" d="M36.26,48.12a1.07,1.07,0,0,1,1.74.36,1,1,0,0,1-1.38,1.36C35.54,49.45,35.92,48.58,36.26,48.12Z"/><path class="cls-5" d="M39.31,38.1a.55.55,0,0,1,.89.19.53.53,0,0,1-.71.69C38.94,38.79,39.13,38.34,39.31,38.1Z"/><path class="cls-1" d="M43.89,37.84c.76-.34,1.56.5,1.29,1.45S43.65,41,43,39.89,43.25,38.12,43.89,37.84Z"/><path class="cls-5" d="M44,38.59c.3-.13.62.2.51.57s-.61.67-.88.24S43.71,38.7,44,38.59Z"/><path class="cls-1" d="M47.06,34.72a1.07,1.07,0,0,1-.33,1.91c-.91.38-2.27-.15-1.86-1.36S46.44,34.4,47.06,34.72Z"/><path class="cls-5" d="M46.52,35.24a.42.42,0,0,1-.13.76c-.36.15-.9-.06-.74-.54S46.27,35.11,46.52,35.24Z"/><path class="cls-5" d="M40.24,57a10.75,10.75,0,0,1,.63-8.69,14.21,14.21,0,0,1,6.66-6.62,15.8,15.8,0,0,1,2.38-.28l-.06,1.16a6.48,6.48,0,0,0-5.19,3.25A14.67,14.67,0,0,0,42,52.9c0,1,.5,3.06.31,3.19A13,13,0,0,1,40.24,57Z"/><path class="cls-3" d="M43.61,55a9.06,9.06,0,0,1,1.06-7.09A14.06,14.06,0,0,1,48,44.12a5.49,5.49,0,0,1,1.72-.62,18.66,18.66,0,0,1-.44,3.22,4.52,4.52,0,0,1-.59,1.53S47,46.31,46.77,46.37s-.59.5-.47.69,2,1.63,1.91,1.84-.41,1.06-.5,1-1.56-1.62-1.78-1.59-.69.41-.56.59,2.13,1.63,1.88,2-.37.53-.37.53a13.33,13.33,0,0,0-1.78-1.72,1.27,1.27,0,0,0-.41.84c.06.16,1.56,1.53,1.47,1.66s-.22.47-.34.44-1.09-1.06-1.22-1-.47.75-.31.91.88.66.88.81A12,12,0,0,1,43.61,55Z"/><path class="cls-3" d="M28.43,13.06a2.2,2.2,0,0,1,2.77,1.67,2.22,2.22,0,0,1-3.32,2C25.91,15.66,27.15,13.36,28.43,13.06Z"/></g></svg>